<?xml version="1.0" encoding="UTF-8" standalone="no"?>
<svg width="31px" height="31px" viewBox="0 0 31 31" version="1.1" xmlns="http://www.w3.org/2000/svg" xmlns:xlink="http://www.w3.org/1999/xlink">
    <!-- Generator: sketchtool 48.2 (47327) - http://www.bohemiancoding.com/sketch -->
    <title>F625C647-B925-41BC-9374-58DDF5F29272</title>
    <desc>Created with sketchtool.</desc>
    <defs>
        <linearGradient x1="100%" y1="50%" x2="0%" y2="50%" id="linearGradient-1">
            <stop stop-color="#F28260" offset="0%"></stop>
            <stop stop-color="#F15F9C" offset="100%"></stop>
        </linearGradient>
        <path d="M11.5,103 C5.14872538,103 0,97.8512746 0,91.5 C0,85.1487254 5.14872538,80 11.5,80 C17.8512746,80 23,85.1487254 23,91.5 C23,97.8512746 17.8512746,103 11.5,103 Z M11.5,100 C16.1944204,100 20,96.1944204 20,91.5 C20,86.8055796 16.1944204,83 11.5,83 C6.80557963,83 3,86.8055796 3,91.5 C3,96.1944204 6.80557963,100 11.5,100 Z" id="path-2"></path>
    </defs>
    <g id="OnePageStan-Web" stroke="none" stroke-width="1" fill="none" fill-rule="evenodd" transform="translate(-704.000000, -1602.000000)">
        <g id="Formation" transform="translate(150.000000, 1459.000000)" fill-rule="nonzero">
            <g id="timeline" transform="translate(558.000000, 67.000000)">
                <g id="Ova">
                    <use fill="url(#linearGradient-1)" fill-rule="evenodd" xlink:href="#path-2"></use>
                    <path stroke="#27273F" stroke-width="4" d="M11.5,105 C4.04415588,105 -2,98.9558441 -2,91.5 C-2,84.0441559 4.04415588,78 11.5,78 C18.9558441,78 25,84.0441559 25,91.5 C25,98.9558441 18.9558441,105 11.5,105 Z M11.5,98 C15.0898509,98 18,95.0898509 18,91.5 C18,87.9101491 15.0898509,85 11.5,85 C7.91014913,85 5,87.9101491 5,91.5 C5,95.0898509 7.91014913,98 11.5,98 Z"></path>
                </g>
            </g>
        </g>
    </g>
</svg>