<?xml version="1.0" encoding="UTF-8" standalone="no"?>
<svg width="31px" height="31px" viewBox="0 0 31 31" version="1.1" xmlns="http://www.w3.org/2000/svg" xmlns:xlink="http://www.w3.org/1999/xlink">
    <!-- Generator: sketchtool 48.2 (47327) - http://www.bohemiancoding.com/sketch -->
    <title>963878B2-3040-4839-B522-B59899A1FFCF</title>
    <desc>Created with sketchtool.</desc>
    <defs>
        <linearGradient x1="100%" y1="50%" x2="0%" y2="50%" id="linearGradient-1">
            <stop stop-color="#C444FB" offset="0%"></stop>
            <stop stop-color="#5A56D7" offset="100%"></stop>
        </linearGradient>
        <path d="M11.5,247 C5.14872538,247 0,241.851275 0,235.5 C0,229.148725 5.14872538,224 11.5,224 C17.8512746,224 23,229.148725 23,235.5 C23,241.851275 17.8512746,247 11.5,247 Z M11.5,244 C16.1944204,244 20,240.19442 20,235.5 C20,230.80558 16.1944204,227 11.5,227 C6.80557963,227 3,230.80558 3,235.5 C3,240.19442 6.80557963,244 11.5,244 Z" id="path-2"></path>
    </defs>
    <g id="OnePageStan-Web" stroke="none" stroke-width="1" fill="none" fill-rule="evenodd" transform="translate(-704.000000, -1746.000000)">
        <g id="Formation" transform="translate(150.000000, 1459.000000)" fill-rule="nonzero">
            <g id="timeline" transform="translate(558.000000, 67.000000)">
                <g id="Oval">
                    <use fill="url(#linearGradient-1)" fill-rule="evenodd" xlink:href="#path-2"></use>
                    <path stroke="#27273F" stroke-width="4" d="M11.5,249 C4.04415588,249 -2,242.955844 -2,235.5 C-2,228.044156 4.04415588,222 11.5,222 C18.9558441,222 25,228.044156 25,235.5 C25,242.955844 18.9558441,249 11.5,249 Z M11.5,242 C15.0898509,242 18,239.089851 18,235.5 C18,231.910149 15.0898509,229 11.5,229 C7.91014913,229 5,231.910149 5,235.5 C5,239.089851 7.91014913,242 11.5,242 Z"></path>
                </g>
            </g>
        </g>
    </g>
</svg>